<svg width="17" height="18" viewBox="0 0 17 18" fill="none" xmlns="http://www.w3.org/2000/svg">
<path d="M14.3171 1.21545H13.3105V0.534653C13.3105 0.392855 13.2551 0.256863 13.1566 0.156596C13.0581 0.0563295 12.9245 0 12.7853 0C12.646 0 12.5124 0.0563295 12.4139 0.156596C12.3154 0.256863 12.26 0.392855 12.26 0.534653V1.21545H4.51852V0.534653C4.51852 0.392855 4.46318 0.256863 4.36469 0.156596C4.26619 0.0563295 4.13261 0 3.99331 0C3.85402 0 3.72043 0.0563295 3.62194 0.156596C3.52344 0.256863 3.46811 0.392855 3.46811 0.534653V1.21545H2.46059C1.80813 1.21639 1.18268 1.48072 0.721404 1.95046C0.26013 2.4202 0.000694677 3.057 0 3.72119V15.4951C0.000926241 16.1592 0.260464 16.7958 0.721713 17.2653C1.18296 17.7349 1.80828 17.9991 2.46059 18H14.3171C14.9698 17.9995 15.5956 17.7354 16.0571 17.2656C16.5186 16.7957 16.7781 16.1587 16.7786 15.4943V3.72119C16.7781 3.05677 16.5186 2.4197 16.0571 1.94988C15.5956 1.48007 14.9698 1.21592 14.3171 1.21545ZM15.7282 15.4943C15.7277 15.8751 15.5789 16.2402 15.3144 16.5094C15.0498 16.7787 14.6912 16.9302 14.3171 16.9307H2.46059C2.08673 16.9302 1.72831 16.7788 1.46395 16.5097C1.19959 16.2406 1.05087 15.8757 1.05041 15.4951V6.38733H15.729L15.7282 15.4943ZM15.7282 5.31802H1.05041V3.72119C1.05064 3.34045 1.19926 2.97536 1.46365 2.70605C1.72803 2.43674 2.08658 2.28522 2.46059 2.28475H3.46811V2.8996C3.46811 3.0414 3.52344 3.17739 3.62194 3.27766C3.72043 3.37793 3.85402 3.43426 3.99331 3.43426C4.13261 3.43426 4.26619 3.37793 4.36469 3.27766C4.46318 3.17739 4.51852 3.0414 4.51852 2.8996V2.28475H12.2609V2.8996C12.2609 3.0414 12.3163 3.17739 12.4148 3.27766C12.5132 3.37793 12.6468 3.43426 12.7861 3.43426C12.9254 3.43426 13.059 3.37793 13.1575 3.27766C13.256 3.17739 13.3113 3.0414 13.3113 2.8996V2.28475H14.318C14.6919 2.28522 15.0504 2.43659 15.3149 2.70568C15.5794 2.97477 15.7283 3.33963 15.729 3.7203L15.7282 5.31802ZM2.97529 9.64248C2.97529 9.42217 3.03946 9.20682 3.15969 9.02365C3.27992 8.84047 3.45081 8.69771 3.65074 8.6134C3.85068 8.5291 4.07068 8.50704 4.28293 8.55002C4.49518 8.59299 4.69014 8.69908 4.84317 8.85486C4.99619 9.01063 5.1004 9.2091 5.14262 9.42517C5.18484 9.64124 5.16317 9.8652 5.08036 10.0687C4.99754 10.2723 4.8573 10.4462 4.67736 10.5686C4.49742 10.691 4.28588 10.7563 4.06947 10.7563C3.77927 10.7563 3.50096 10.639 3.29577 10.4301C3.09057 10.2212 2.97529 9.93789 2.97529 9.64248ZM7.2951 9.64248C7.2951 9.42217 7.35928 9.20682 7.47951 9.02365C7.59974 8.84047 7.77062 8.69771 7.97056 8.6134C8.17049 8.5291 8.3905 8.50704 8.60275 8.55002C8.815 8.59299 9.00996 8.69908 9.16298 8.85486C9.31601 9.01063 9.42022 9.2091 9.46244 9.42517C9.50466 9.64124 9.48299 9.8652 9.40017 10.0687C9.31736 10.2723 9.17711 10.4462 8.99718 10.5686C8.81724 10.691 8.60569 10.7563 8.38928 10.7563C8.09909 10.7563 7.82078 10.639 7.61558 10.4301C7.41038 10.2212 7.2951 9.93789 7.2951 9.64248ZM11.6149 9.64248C11.6149 9.42217 11.6791 9.20682 11.7993 9.02365C11.9196 8.84047 12.0904 8.69771 12.2904 8.6134C12.4903 8.5291 12.7103 8.50704 12.9226 8.55002C13.1348 8.59299 13.3298 8.69908 13.4828 8.85486C13.6358 9.01063 13.74 9.2091 13.7823 9.42517C13.8245 9.64124 13.8028 9.8652 13.72 10.0687C13.6372 10.2723 13.4969 10.4462 13.317 10.5686C13.1371 10.691 12.9255 10.7563 12.7091 10.7563C12.4189 10.7563 12.1406 10.639 11.9354 10.4301C11.7302 10.2212 11.6149 9.93789 11.6149 9.64248ZM2.97529 13.2772C2.97529 13.0569 3.03946 12.8416 3.15969 12.6584C3.27992 12.4752 3.45081 12.3325 3.65074 12.2482C3.85068 12.1638 4.07068 12.1418 4.28293 12.1848C4.49518 12.2277 4.69014 12.3338 4.84317 12.4896C4.99619 12.6454 5.1004 12.8439 5.14262 13.0599C5.18484 13.276 5.16317 13.5 5.08036 13.7035C4.99754 13.907 4.8573 14.081 4.67736 14.2034C4.49742 14.3258 4.28588 14.3911 4.06947 14.3911C3.77927 14.3911 3.50096 14.2737 3.29577 14.0648C3.09057 13.856 2.97529 13.5726 2.97529 13.2772ZM7.2951 13.2772C7.29476 13.0569 7.35864 12.8413 7.47865 12.6579C7.59867 12.4745 7.76944 12.3315 7.96934 12.2469C8.16925 12.1623 8.38931 12.14 8.60167 12.1828C8.81404 12.2255 9.00916 12.3315 9.16236 12.4872C9.31556 12.6429 9.41995 12.8414 9.46231 13.0575C9.50467 13.2736 9.4831 13.4977 9.40034 13.7013C9.31757 13.9049 9.17733 14.079 8.99736 14.2015C8.81738 14.3239 8.60576 14.3893 8.38928 14.3893C8.09939 14.3893 7.82135 14.2722 7.6162 14.0637C7.41105 13.8552 7.29557 13.5723 7.2951 13.2772ZM11.6149 13.2772C11.6149 13.0569 11.6791 12.8416 11.7993 12.6584C11.9196 12.4752 12.0904 12.3325 12.2904 12.2482C12.4903 12.1638 12.7103 12.1418 12.9226 12.1848C13.1348 12.2277 13.3298 12.3338 13.4828 12.4896C13.6358 12.6454 13.74 12.8439 13.7823 13.0599C13.8245 13.276 13.8028 13.5 13.72 13.7035C13.6372 13.907 13.4969 14.081 13.317 14.2034C13.1371 14.3258 12.9255 14.3911 12.7091 14.3911C12.4189 14.3911 12.1406 14.2737 11.9354 14.0648C11.7302 13.856 11.6149 13.5726 11.6149 13.2772Z" fill="#E1484D"/>
</svg>
