<svg width="17" height="12" viewBox="0 0 17 12" fill="none" xmlns="http://www.w3.org/2000/svg">
<path d="M15.5059 0H1.49414C0.668611 0 0 0.6754 0 1.5V10.5C0 11.3295 0.673525 12 1.49414 12H15.5059C16.3245 12 17 11.3323 17 10.5V1.5C17 0.676867 16.334 0 15.5059 0ZM15.2966 1L9.55652 6.73223C9.2743 7.01557 8.8991 7.17157 8.5 7.17157C8.1009 7.17157 7.7257 7.01553 7.44255 6.7313L1.70339 1H15.2966ZM0.996094 10.2965V1.70417L5.30048 6.00267L0.996094 10.2965ZM1.70402 11L6.00671 6.7079L6.73914 7.43933C7.20949 7.91153 7.83484 8.17157 8.5 8.17157C9.16516 8.17157 9.79051 7.91153 10.2599 7.44027L10.9933 6.7079L15.296 11H1.70402ZM16.0039 10.2965L11.6995 6.00267L16.0039 1.70417V10.2965Z" fill="#E1484D"/>
</svg>
