<svg width="15" height="18" viewBox="0 0 15 18" fill="none" xmlns="http://www.w3.org/2000/svg">
<path d="M13.7487 7.67648C13.5214 7.44794 13.2509 7.26676 12.953 7.14342C12.6552 7.02007 12.3358 6.95702 12.0134 6.9579H11.8358V4.51864C11.8358 2.027 9.80885 0 7.31735 0H7.15028C4.65879 0 2.63164 2.027 2.63164 4.51864V6.95776H2.45407C2.13167 6.9569 1.8123 7.01998 1.51443 7.14335C1.21657 7.26672 0.946118 7.44792 0.718736 7.67648C0.490156 7.90388 0.30894 8.17435 0.185572 8.47225C0.0622036 8.77014 -0.000867061 9.08954 9.00266e-06 9.41196V15.5459C9.00266e-06 16.2015 0.25527 16.8178 0.718736 17.2811C0.946072 17.5098 1.21651 17.691 1.51438 17.8144C1.81225 17.9378 2.13165 18.0009 2.45407 18H12.0134C12.669 18 13.2853 17.7447 13.7489 17.2811C13.9775 17.0538 14.1587 16.7833 14.2821 16.4855C14.4054 16.1877 14.4685 15.8683 14.4676 15.5459V9.41196C14.4685 9.08953 14.4054 8.77012 14.282 8.47223C14.1586 8.17434 13.9774 7.90387 13.7487 7.67648ZM3.81546 4.51864C3.81546 2.67987 5.31137 1.18382 7.15028 1.18382H7.31735C9.15612 1.18382 10.652 2.67987 10.652 4.51864V6.95776H3.81546V4.51864ZM13.2838 15.5459C13.2828 15.8826 13.1491 16.2052 12.9118 16.444C12.7941 16.5624 12.6541 16.6562 12.4999 16.7201C12.3457 16.784 12.1803 16.8166 12.0134 16.8162H2.45407C2.28714 16.8166 2.12179 16.7839 1.96758 16.72C1.81337 16.6561 1.67337 16.5623 1.5557 16.4439C1.43737 16.3262 1.34356 16.1863 1.27971 16.0322C1.21585 15.878 1.18321 15.7128 1.18368 15.5459V9.41196C1.18322 9.24506 1.21586 9.07972 1.27971 8.92552C1.34357 8.77131 1.43737 8.63131 1.5557 8.51359C1.67339 8.39529 1.81338 8.30149 1.96756 8.23764C2.12173 8.17378 2.28704 8.14113 2.45392 8.14158H12.0133C12.3526 8.14158 12.6716 8.27372 12.9115 8.51344C13.0298 8.63118 13.1237 8.77121 13.1876 8.92544C13.2514 9.07967 13.2841 9.24503 13.2837 9.41196L13.2838 15.5459Z" fill="#E1484D"/>
<path d="M7.234 10.8448C7.07702 10.8448 6.92646 10.9072 6.81546 11.0182C6.70445 11.1292 6.64209 11.2797 6.64209 11.4367V13.522C6.64209 13.679 6.70445 13.8296 6.81546 13.9406C6.92646 14.0516 7.07702 14.1139 7.234 14.1139C7.39098 14.1139 7.54154 14.0516 7.65254 13.9406C7.76355 13.8296 7.82591 13.679 7.82591 13.522V11.4367C7.82591 11.2797 7.76355 11.1292 7.65254 11.0182C7.54154 10.9072 7.39098 10.8448 7.234 10.8448Z" fill="#E1484D"/>
</svg>
