<svg width="16" height="18" viewBox="0 0 16 18" fill="none" xmlns="http://www.w3.org/2000/svg">
<path d="M7.39519 8.67069C8.58635 8.67069 9.61769 8.24344 10.4606 7.4005C11.3033 6.55773 11.7307 5.52653 11.7307 4.33522C11.7307 3.14427 11.3034 2.11296 10.4605 1.26988C9.61755 0.427219 8.58621 0 7.39519 0C6.20385 0 5.17261 0.427219 4.32984 1.27002C3.48708 2.11282 3.05968 3.14416 3.05968 4.33522C3.05968 5.52653 3.48704 6.55787 4.32988 7.40067C5.17293 8.24333 6.20427 8.67069 7.39515 8.67069H7.39519ZM5.07582 2.01586C5.72249 1.36916 6.48112 1.05483 7.39519 1.05483C8.30911 1.05483 9.06785 1.36916 9.71465 2.01586C10.3614 2.66266 10.6758 3.42141 10.6758 4.33519C10.6758 5.24925 10.3614 6.00789 9.71465 6.65469C9.06785 7.30153 8.30911 7.61586 7.39519 7.61586C6.48137 7.61586 5.7228 7.30139 5.07582 6.65469C4.42898 6.00803 4.11451 5.24929 4.11451 4.33522C4.11451 3.42141 4.42898 2.66266 5.07582 2.01586ZM14.9811 13.8411C14.9568 13.4904 14.9076 13.1078 14.8352 12.7038C14.7622 12.2967 14.6681 11.9119 14.5555 11.5602C14.4391 11.1967 14.281 10.8378 14.0853 10.4937C13.8824 10.1367 13.6441 9.82575 13.3765 9.56992C13.0968 9.30227 12.7543 9.08708 12.3582 8.93007C11.9636 8.77398 11.5262 8.69488 11.0583 8.69488C10.8745 8.69488 10.6969 8.77025 10.3537 8.99371C10.1097 9.15256 9.86502 9.3103 9.61963 9.46691C9.38383 9.61717 9.06441 9.75793 8.66985 9.88538C8.28492 10.0099 7.89409 10.0731 7.50818 10.0731C7.12258 10.0731 6.73172 10.0099 6.34651 9.88538C5.95241 9.75804 5.63284 9.61731 5.39743 9.46705C5.12427 9.2925 4.87712 9.13321 4.66274 8.99353C4.31982 8.77011 4.14211 8.6947 3.95838 8.6947C3.49035 8.6947 3.05311 8.77395 2.65855 8.93025C2.26276 9.08694 1.92013 9.30213 1.64011 9.57006C1.37261 9.82603 1.13421 10.1368 0.9315 10.4937C0.736102 10.8377 0.577898 11.1966 0.461426 11.5604C0.348926 11.9121 0.254883 12.2967 0.181828 12.7038C0.109301 13.1072 0.060293 13.49 0.0359648 13.8415C0.0120586 14.1853 0 14.543 0 14.9045C0 15.8441 0.298687 16.6047 0.887695 17.1657C1.46943 17.7193 2.23903 18 3.17517 18H11.8423C12.7782 18 13.5478 17.7193 14.1296 17.1657C14.7188 16.6051 15.0175 15.8442 15.0175 14.9043C15.0173 14.5416 15.0051 14.1839 14.9811 13.8411ZM13.4024 16.4015C13.018 16.7673 12.5076 16.9452 11.8421 16.9452H3.17521C2.50959 16.9452 1.99927 16.7673 1.61501 16.4017C1.23806 16.0428 1.05486 15.5529 1.05486 14.9045C1.05486 14.5672 1.06597 14.2342 1.08826 13.9145C1.10992 13.6008 1.15429 13.2562 1.2201 12.8901C1.28503 12.5285 1.36768 12.1892 1.46602 11.882C1.56037 11.5874 1.68905 11.2957 1.84862 11.0148C2.00092 10.7469 2.17614 10.5172 2.3695 10.3321C2.55037 10.1589 2.77836 10.0172 3.04696 9.91093C3.29537 9.81257 3.57458 9.75874 3.87766 9.75062C3.91458 9.77031 3.98039 9.80779 4.08695 9.87725C4.30379 10.0186 4.55372 10.1798 4.83005 10.3563C5.14153 10.5549 5.54277 10.7342 6.02219 10.8889C6.51231 11.0474 7.01219 11.1279 7.50835 11.1279C8.00455 11.1279 8.50454 11.0474 8.99441 10.8891C9.47422 10.734 9.87535 10.5549 10.1873 10.356C10.47 10.1753 10.713 10.0187 10.9298 9.87725C11.0364 9.80789 11.1021 9.77027 11.1391 9.75066C11.4423 9.75874 11.7215 9.81257 11.97 9.9109C12.2385 10.0172 12.4665 10.1591 12.6474 10.3321C12.8407 10.5171 13.0159 10.7468 13.1682 11.0149C13.3279 11.2957 13.4568 11.5876 13.551 11.8819C13.6494 12.1895 13.7322 12.5287 13.7971 12.89C13.8627 13.2568 13.9072 13.6015 13.9289 13.9146V13.9149C13.9513 14.2333 13.9625 14.5662 13.9627 14.9045C13.9625 15.5531 13.7794 16.0428 13.4024 16.4015H13.4024Z" fill="#E1484D"/>
</svg>
